<mxfile host="www.draw.io" modified="2020-02-02T15:03:06.085Z" agent="Mozilla/5.0 (Windows NT 10.0; Win64; x64) AppleWebKit/537.36 (KHTML, like Gecko) Chrome/79.0.3945.117 Safari/537.36" etag="5AYgU1Tn1mKNkxO1MEEO" version="12.6.4" type="github">
  <diagram id="4Yv4T2FzOvqm8OSmvZDy" name="Page-1">
    <mxGraphModel dx="1422" dy="745" grid="1" gridSize="10" guides="1" tooltips="1" connect="1" arrows="1" fold="1" page="1" pageScale="1" pageWidth="1169" pageHeight="827" math="0" shadow="0">
      <root>
        <mxCell id="0"/>
        <mxCell id="1" parent="0"/>
        <mxCell id="f-gjPmFj7WLw3WGe5HRc-2" value="Home Assistant" style="shape=image;verticalLabelPosition=bottom;labelBackgroundColor=#ffffff;verticalAlign=top;aspect=fixed;imageAspect=0;image=data:image/png,iVBORw0KGgoAAAANSUhEUgAAAMgAAADICAMAAACahl6sAAAABGdBTUEAALGPC/xhBQAAAAFzUkdCAK7OHOkAAAA/UExURUdwTEC99T237VLA8j6n1US15mjM+Y+VmHDP+3LD6FfB8f38/Eu+8vLy8vj4+D6w4jim1p/X73LM9M7n8uTz+T7H2pcAAAAKdFJOUwD///+XxcALikKMokg/AAAP6klEQVR42u1diXbjKBAcQSaJUQsM0v9/6z7ubg4J+cjE+4wcx1Ek1EVVdaNjMn/+vNu7vdu7vdu7vdu7vVD7+pXtJIjL5fvXtstlHMb356f5te3z8/syRMzX5dMY8XubxfL9NULHr4YhBOdCmO/LAA7Bxa9vh0i+vo14hcbNvrpeBYfjZA/J5VO8TPvcE9e3eKHWp+Tr6/OVgOxQcvm/APl+hcybEpf4/n9YRIiPr27y/f8A4W9G3ozcYnMf5y4j/LFL6+3O3tzikOwA4fwJo5cDEOn7zb1xkV8HQB7LieA8D2cAcVd/GceBR/hDpeyODgBZHTwHcqM5hhhxR3pQ8yRwAUYbhwKyU247kMivAWk9LrG4Qyuh123TArgSSkQw5xmhouc/xEg8mlCc622eZ2mRCGGhKBEG95YuyXJo9vtfedQ8joBEeSgohZ7rsUjBB4w87GVHP+JwSBi4lZ6Tk90RFOFtl5GH4XBCyjgcEgVKJCjneuNIjyK87wN5EAzbEcERkIgAJQV0ihD6/QDIY5pLUQTHPG9aKOWRpPx1Nv1yNAJH0nrADMtPTAocHolHIXBlGJ5kxewVdnw6I65kNHB4dakABuxy13GeCwR8wYAWjqwusPqCO4vVTzDC2zgwJ8Kh/r2MuAIC0MFhOVFJXfeR8lxGgIMo827JiQpZ615SngkELCE7fGQkNh8oi5vDM4BAiObGNxCwq6usrlhL3HRlv997GDmPwr07XQE7wJHUpWylj3vu9Nt8HTMC92ReG9shDo/EU+L8Dk/wCB2G8Te32PFlAzgyEiWiTaB9VNjh5JARQOoclpbTlQI1hAMjsZwAkUzZb09bgx5JCeX4DTwKe5VhEEdC4vdLSKqjws1ZC2i+OOF4AW1/bNu2yRF1oYMmZWTdVsuRRyrlHy7OHnamWPtjW7Xxd/lriA6JApuCVegCfHM/cdx/pasDjwAUYzD0Fq1e+0MbYKFx0ZjVW0rATYSdU3LWiF89hxx5BPZSSDEghDnr84qPNcOwDcQqm5y4epKIgAQBMDZeDe4ukEZu6CqVE/pqn6+CFY1r2anxKYFB/lQrgw7tkbQofiiVyisIng91jKOBxHOifOpioJiKmyp7dhYUdgsjUABA0ba+8WTQWles0cTa9Ik1GIAxRqfF2PEBxEwtidsZaS7Q9PmmWbOZbW5zosBeWs1t1RycdaLtT6Xf5ojvLe4grXqOhGWfsMo/6fZcWClTkLUZbxjoRnOctdoxt1fb0w9oZNaUq/S6yW3VokfJvGh1FaoeCwMMfPcAZwsinCiDsX4JJergEiEQ7R2RgG6f/TaKEHOnXoKWmFFGUCnKr+qL1OHWfFeHCgKmWqVlG0k1Gto6hydGqq8jaaFShF8cV9uMojO/isriWfjS9LTlHH+t1hvFXNlXHOgAxwgGGMn7VB8oIbylqxw0E1sFrjR15KTNiM1cCoAEEEIYYgQPfvGBMNK5XrJFIEZWchNr+zy+NrtSVlmJEH6OkVqMdO8sKgDOEh8SLRUjEgNxjMhiBztPXsj6UGC4n4oRbQx5JLNIvuPwkT/CfTUf/Jy/JSCwxjXzjDwSNgwYIpZivVEeSTF4+cMhI30UpE/OuNnSkeWcX9nsTluSZOTAoUwIZSItr7Nv/sTL2YSRQKIyBhgh0+kKQUxXKvCRQ8lR87KOJNtoihuHTjsz6uqhIEWRgTwCsiMr4hJXP2Qdif3KU0bQm5RSJhx8nQsltimJkzBcTKhFRhhxbSo5KAjR20wDQlHMaM4ojNaG01mjnFtjQGiazTWc1BdHTnGNAtnDwUI9p/JIyurN4r37KyFhbnJ3+noN8+JsEuAOBp/s93FG+pwwr6uQKyX5JKVEM5Ki6bgZ3r7ow32cpWPEXZ5oNT7IiAPB9/mQcm4vvgz0TkcwirB5tbv9bWCEO1JabYwRvsOJ46McyOJD89TKrC3g5ccAx1xT1mpTsgdk4mEBmCCKcWrr6mCZpeaFP3BR3wfkiuo1miR5hE8cRTjoEZ4SRN7VomOejyKCRiyzpNeDzBrk2Iq91tscpIUomcYZIWaPlm/4Q87HI1rIS29yHtgrrZZeWmXaglFGMnm7+SoObSuuLPN5BZKvmls1LII8Yhlh0CDlwCNF+p2orCIfMuVZWTS6ugLS3KpYLUMKjh6hhCReDj3ifU5QWHomwDjmmP3p6Eq6usVIsRXaPa/2KzIjyh06hOUDnI7qyNQWVIQBZpuLoZzJ+0xWNxkpO0CxE4yWkasjhN3ESKTE4Y4fo9HNlg9WHVmWAVVA5ljJScmooPiPIWv5esiwVkJI+x7pU8I8DjqgM/0h/nbeZyQx1ugnzVs2re7yCGIkYfc+j3xkD6BDF0Mrdz0yYyhzqbnYf0AS0i/DQhlgpGMQ6o+ZqmFu2qWbtXC0dT8ol2ROWCuqA7PXixcW8kczh85FMnJfrTpS7jS3BJfUhSpiiicI5SwjE+Kj1cLJXfNXBEivzf3fRCQMUOaKUI7MXhMCfRyzlIu9C7C0wzkGMu+CyZz4tOUWX575NDT7RdPeKearVhTLtmpt79Cs63aeEbf/utqdl2MkDE3/BqRFyJi8sHp8LPl2ARN6Xc4yYu9ecz/D162BaHMSJkx7jITqP0HKvd4gHRwbPeMIF0zGGSHTfDBrU2ABiduE5eHdryNTgxJ/gto0gKnPAE8wspQnXlwvXU4Y5iREeQAEJ7hpJ181L5SIdRhI61RYb3vqspSwk4yk72D5aIp369y2HQSy6PZFFrpRePOcMD/pinONA48EJvzCIIzSUr1k97ZtDGFpAUn7r+3LXnomW4U3h8TKizl1TYd1ZHLbTNkjPbalXDl6NkMg0+oYQoOR7IENPU7AhcA34tv8a+d3iIafDoCQufuEdZWGJwRjskXt/XGdfhbbnEeyltZSCsvY3XP+0vhY+YDeJ7HEH5sdZawJpsjHgkIIH9Jt22iKbBmNN2t4ZKFbbxSZ2AgKNIiOkzgNPmSEZl7KB/qQb9uuldZsaEvH7Gl9lacitOCSwvBBXe5RlWThQSDOILafxRuPfEjKMvl3Gts9bIaB4H7I+C+EY50PRg8pV+YnKielZZHoBiGeZxMNMld+sGKLYqRA0u4bHQefYk1eRdyYhL1aRlQu72OMTMAm5k9t8W2QMIDxqDbJhDFL2nKuaTKSRiLfvkJjozNJfl2+2+0f9TA+bzlKpiNGCCHAjKZtjXndpNsd6bCYkVbWylUoTwo0qhqaqE3KtTi2caXE4hj0SCwkFjyzjxe5h3eUvThzDQJO0sJlbmVEWk1GliJpmaUCFxmxV1FSC3fhkEmGPcL8vJc5DAGGA+LH2uQbHjEUQ83e90hWpkt6HmDKgxEbAZIvOvoMfCprsdBzGA3EyCJlSr+pkKdbVNptsSyLrLPWUmSthJqozW2yw8g0xAiaotidXKbwtDgg0cWpIIa7tmlODtHr9q1iJCxrMfNfEg7QAS0Fcg04VD4tGZOWR2H3sjdaIo5rTvL5/rNLCPkUSWxxk0YdiQt6wM5ovep8apIri0Z8UGFZtRxKK78iFoXUpXMoeNIIZAKLIu4wIskjqAB0Il8yEmC4QCAwYgMclRbz03hggRPbHyr1nfvPGEmPEbl2dxZrzHgIiEJ8WNghxqM6knMwCydlkRPEyDLvBKP3GdnD4dIiZSQRArEgDtURJyr75pSYcARSECPNJ5RxJVmq9HuIg9CmMR+MxbMRG9cpRvyHMCUIqQt55EggfUb2cGy5f89IosPzkcrhgEcge31iMXfZcsIcI75ELK5MFE/xF1JfKiBhpwNJxiKkESG2DkQ+0mnsPiPTNGHLBywuWwQgS06vy5ofTYbiXrTVegWk5APwszd+l9CzZyQSYq88uM0nl4KmYUbCGWKkxWuLOSCOkIxn1fYPVNprppsukNR1ZCn4MFoLbk/5uLHXKQOKJUweEiEo7UIc6EOPoA0djCnmYTfvimU3acCV5W1b6CwlTD4qRmj9cPOTbV11uHC8RBS+fwwkGn1CFhn3CKIlukRnEcfRi9TgGVgKszB7hcMPwCwTD5lwL60EI5oDCf+YESC7+E9OoyUjGUNQG0Giy/TbwrEseTQII+5m6DVUdO+OHJhrh4xMxR5pKqwYYoRiiK8CCQFS45Akc2DJLl5agZFUBZNU4Cwj0V5TZoS06meKBANp8NFvMgHx/8gn0TDKCNoOSDL2LtFIRwiLzOIinOCUbFo4akrT4KT77CydS+WcNe4RoOCn4Hgtq/CrodTADpvHIdtcUGkVjKCYRhlJJTTUxWz25nFzMjtGYlbZ2J32HB8F9EmrUMhx+kWEABkD6hHZOHyO6QhJwCGpyyTtJJndMwJEKwOMEAoRlnja03J4RVJ5L6qBA3fUlFhMv4wkX0zJARCg8gLsESotYhMqsT0kWVeEloKQjkdwaCOMFNIKSauRfnutj8SsYz1ITSYoKR4Ym2v1+ECM3IdkFAcpiJERIEGNeYQ2K9JTQHrqGsbhGbnGKXwrqFEgNBGfBNLhZBxHyQi7DQgUeFhvinKOkxM4ch1RQVlQjvIJaeFScpqRmhOar0YYuVaMwAlGoKHHs1mrxckZPmhlb5vkFrOfz1o1J6f4WMrK3hDKTUDYLdJa6G3ok/uiyh6VBecZQRUR8hzlNCPo+Qi9LMstjLCakRukBYmPAORkNOj+wS1ASGU/DwR6FrkByJ2M5Kw1MShns3d55OeALClrqXY9vDVr/RNGirnW/UDYdOOwrncxct2bodzIiIPyTxgJWYs9Csg/8cj14Yyw6V8x8pg6QmD8bB15EiP/3CPsoUDYP6kjHWW9Sh1ZHnKG2PBIxci68+0IyMi+4V/BPNojlJHDU6S1D2Qd21VGIOqh0grz3x+VVr7NMz3a7Eos8vb0e3JXc32etOztmnMNMXJ2T4XKIZseWEccJUoI+4cXjTJXu4irUOLaWoz/UvmZK78u/aa/+L9jrsIdRNabat3HiFLXH2sKWeRx03iMRf0sjg4hd1X2+Fyg+hEYSViPrewThaKeCwMRMj3U7BUp1/ic43FU4WsQQ3xiLv/1yU48twJh6YQ3kfLUxlIJeSwjab7lrms8G4s/zh4fd0grX4NgAQt7FhVIVl1C7pBWVpeKWG5oiqHh7m7AGC2F7MGMZFIUYebEkt+6W7Dsj+kp0vI4ps7gPb4FVbHp8dKqsTwRxg4bD2AEm2V6HhP+GLtQ7gKSWIlwHv+KJauY6D0cSOq4E8jdSBg6wHST2f8MAmn1Tw9aJM2z7wMg9oF8sFMoKj0UB78Ty2H76P+XzTC9ULvu/N/Tf18JyN8+kK8P9kJAPnb+p/lXooTt/EfzX69EyR4hlpIXQcJ2HOI4eRUkfy+7hLwKEnaIwyL5UL8cClMDOBySv0qxX9uU+vtx+TPWLpePj7+/tH18XEZheFp+bfv6827v9m7v9m7v9m7v9irtP5+C++YqkZdTAAAAAElFTkSuQmCC;" vertex="1" parent="1">
          <mxGeometry x="530" y="310" width="60" height="60" as="geometry"/>
        </mxCell>
        <mxCell id="f-gjPmFj7WLw3WGe5HRc-3" value="" style="outlineConnect=0;dashed=0;verticalLabelPosition=bottom;verticalAlign=top;align=center;html=1;shape=mxgraph.aws3.mqtt_protocol;fillColor=#5294CF;gradientColor=none;" vertex="1" parent="1">
          <mxGeometry x="400" y="120" width="60" height="60" as="geometry"/>
        </mxCell>
        <mxCell id="f-gjPmFj7WLw3WGe5HRc-4" value="" style="shape=image;html=1;verticalAlign=top;verticalLabelPosition=bottom;labelBackgroundColor=#ffffff;imageAspect=0;aspect=fixed;image=https://cdn4.iconfinder.com/data/icons/flat-brand-logo-2/512/xiaomi-128.png" vertex="1" parent="1">
          <mxGeometry x="250" y="320" width="60" height="60" as="geometry"/>
        </mxCell>
        <mxCell id="f-gjPmFj7WLw3WGe5HRc-6" value="Grafana" style="shape=image;html=1;verticalAlign=top;verticalLabelPosition=bottom;labelBackgroundColor=#ffffff;imageAspect=0;aspect=fixed;image=data:image/svg+xml,PHN2ZyB4bWxucz0iaHR0cDovL3d3dy53My5vcmcvMjAwMC9zdmciIHhtbG5zOnhsaW5rPSJodHRwOi8vd3d3LnczLm9yZy8xOTk5L3hsaW5rIiB3aWR0aD0iMjU2cHgiIGhlaWdodD0iMjc5cHgiIHZpZXdCb3g9IjAgMCAyNTYgMjc5IiB2ZXJzaW9uPSIxLjEiIHByZXNlcnZlQXNwZWN0UmF0aW89InhNaWRZTWlkIj4mI3hhOyAgICA8ZGVmcz4mI3hhOyAgICAgICAgPGxpbmVhckdyYWRpZW50IHgxPSI0OS45OTQ3ODM5JSIgeTE9IjEyMi40NTAzNTglIiB4Mj0iNDkuOTk0NzgzOSUiIHkyPSIzMS4xMzkwMDgzJSIgaWQ9ImxpbmVhckdyYWRpZW50LTEiPiYjeGE7ICAgICAgICAgICAgPHN0b3Agc3RvcC1jb2xvcj0iI0ZGRjEwMCIgb2Zmc2V0PSIwJSIvPiYjeGE7ICAgICAgICAgICAgPHN0b3Agc3RvcC1jb2xvcj0iI0YwNUEyOCIgb2Zmc2V0PSIxMDAlIi8+JiN4YTsgICAgICAgIDwvbGluZWFyR3JhZGllbnQ+JiN4YTsgICAgPC9kZWZzPiYjeGE7ICAgIDxnPiYjeGE7ICAgICAgICA8cGF0aCBkPSJNMjU1LjU5MDEsMTIyLjc3NTIxNSBDMjU1LjEzMDI2OCwxMTguMTAwMjUzIDI1NC4zNjM4ODEsMTEyLjczNTU0MyAyNTIuODMxMTA3LDEwNi43NTc3MjQgQzI1MS4yOTgzMzIsMTAwLjg1NjU0MyAyNDguOTk5MTcxLDk0LjM0MjI1MjkgMjQ1LjYyNzA2OCw4Ny41OTgwNDYzIEMyNDIuMjU0OTY1LDgwLjg1MzgzOTggMjM3Ljg4NjU1OCw3My44Nzk3MTcxIDIzMi4yMTUyOTMsNjcuMDU4ODcxOSBDMjI5Ljk5Mjc3MSw2NC4zNzY1MTcgMjI3LjU0MDMzMiw2MS43NzA4MDA4IDIyNC45MzQ2MTYsNTkuMjQxNzIzNCBDMjI4Ljg0MzE5LDQzLjY4NDA2NTEgMjIwLjE4MzAxNiwzMC4xOTU2NTIgMjIwLjE4MzAxNiwzMC4xOTU2NTIgQzIwNS4yMzg0NjcsMjkuMjc1OTg3NSAxOTUuNzM1MjY3LDM0Ljg3MDYxMzQgMTkyLjIwOTg4NiwzNy4zOTk2OTA4IEMxOTEuNTk2Nzc3LDM3LjE2OTc3NDcgMTkxLjA2MDMwNiwzNi44NjMyMTk5IDE5MC40NDcxOTYsMzYuNjMzMzAzNyBDMTg3LjkxODExOSwzNS42MzcwMDA1IDE4NS4zMTI0MDIsMzQuNjQwNjk3MiAxODIuNTUzNDA5LDMzLjc5NzY3MTQgQzE3OS44NzEwNTQsMzIuOTU0NjQ1NiAxNzcuMTEyMDYsMzIuMTg4MjU4NSAxNzQuMjc2NDI4LDMxLjQ5ODUxMDEgQzE3MS40NDA3OTYsMzAuODA4NzYxNyAxNjguNjA1MTY0LDMwLjI3MjI5MDcgMTY1LjY5Mjg5MywyOS44MTI0NTg1IEMxNjUuMTU2NDIyLDI5LjczNTgxOTggMTY0LjY5NjU4OSwyOS42NTkxODEgMTY0LjE2MDExOCwyOS41ODI1NDIzIEMxNTcuNjQ1ODI4LDguNzM2ODEzMDIgMTM4Ljk0NTk4MywwIDEzOC45NDU5ODMsMCBDMTE4LjAyMzYxNCwxMy4yNTg0OTcgMTE0LjExNTA0LDMxLjgwNTA2NDkgMTE0LjExNTA0LDMxLjgwNTA2NDkgQzExNC4xMTUwNCwzMS44MDUwNjQ5IDExNC4wMzg0MDIsMzIuMTg4MjU4NSAxMTMuODg1MTI0LDMyLjg3ODAwNjkgQzExMi43MzU1NDMsMzMuMTg0NTYxNyAxMTEuNTg1OTYzLDMzLjU2Nzc1NTMgMTEwLjQzNjM4MiwzMy44NzQzMTAxIEMxMDguODI2OTY5LDM0LjMzNDE0MjQgMTA3LjIxNzU1NiwzNC45NDcyNTIxIDEwNS42ODQ3ODIsMzUuNTYwMzYxOCBDMTA0LjA3NTM2OSwzNi4xNzM0NzE1IDEwMi41NDI1OTUsMzYuNzg2NTgxMSAxMDAuOTMzMTgyLDM3LjQ3NjMyOTUgQzk3Ljc5MDk5NDksMzguODU1ODI2MyA5NC42NDg4MDc3LDQwLjM4ODYwMDUgOTEuNTgzMjU5Myw0Mi4wNzQ2NTIyIEM4OC41OTQzNDk2LDQzLjc2MDcwMzggODUuNjgyMDc4Niw0NS42MDAwMzI5IDgyLjg0NjQ0NjMsNDcuNTE2MDAwNiBDODIuNDYzMjUyNyw0Ny4zNjI3MjMyIDgyLjA4MDA1OTIsNDcuMjA5NDQ1OCA4Mi4wODAwNTkyLDQ3LjIwOTQ0NTggQzUzLjExMDYyNjUsMzYuMTczNDcxNSAyNy40MzY2NTg0LDQ5LjQzMTk2ODQgMjcuNDM2NjU4NCw0OS40MzE5Njg0IEMyNS4wNjA4NTg0LDgwLjI0MDczMDEgMzkuMDA5MTAzOCw5OS42MzAzMjM5IDQxLjc2ODA5NzMsMTAzLjE1NTcwNSBDNDEuMDc4MzQ4OSwxMDUuMDcxNjcyIDQwLjQ2NTIzOTMsMTA2Ljk4NzY0IDM5Ljg1MjEyOTYsMTA4LjkwMzYwOCBDMzcuNzA2MjQ1NywxMTUuODc3NzMxIDM2LjA5NjgzMjcsMTIzLjAwNTEzMSAzNS4xMDA1Mjk1LDEzMC40MzkwODYgQzM0Ljk0NzI1MjEsMTMxLjUxMjAyOCAzNC43OTM5NzQ3LDEzMi41ODQ5NyAzNC43MTczMzYsMTMzLjY1NzkxMSBDNy44OTM3ODcyLDE0Ni45MTY0MDggMCwxNzMuOTY5ODczIDAsMTczLjk2OTg3MyBDMjIuMzAxODY0OCwxOTkuNjQzODQxIDQ4LjM1OTAyNjUsMjAxLjI1MzI1NCA0OC4zNTkwMjY1LDIwMS4yNTMyNTQgQzQ4LjM1OTAyNjUsMjAxLjI1MzI1NCA0OC40MzU2NjUyLDIwMS4xNzY2MTYgNDguNDM1NjY1MiwyMDEuMTc2NjE2IEM1MS43MzExMjk3LDIwNy4wNzc3OTYgNTUuNTYzMDY1MywyMTIuNjcyNDIyIDU5Ljg1NDgzMzEsMjE3Ljk2MDQ5MyBDNjEuNjk0MTYyMSwyMjAuMTgzMDE2IDYzLjUzMzQ5MTIsMjIyLjI1MjI2MSA2NS41MjYwOTc3LDIyNC4zMjE1MDYgQzU3LjQwMjM5NDMsMjQ3LjYxOTY3NCA2Ni42NzU2NzgzLDI2Ni45MzI2MjkgNjYuNjc1Njc4MywyNjYuOTMyNjI5IEM5MS41MDY2MjA2LDI2Ny44NTIyOTQgMTA3LjgzMDY2NiwyNTYuMDQ5OTMyIDExMS4yNzk0MDgsMjUzLjM2NzU3OCBDMTEzLjczMTg0NywyNTQuMjEwNjAzIDExNi4yNjA5MjQsMjU0Ljk3Njk5MSAxMTguNzkwMDAyLDI1NS41OTAxIEMxMjYuNDUzODczLDI1Ny41ODI3MDcgMTM0LjI3MTAyMSwyNTguNzMyMjg3IDE0Mi4wODgxNywyNTkuMDM4ODQyIEMxNDQuMDA0MTM3LDI1OS4xMTU0ODEgMTQ1Ljk5Njc0NCwyNTkuMTkyMTIgMTQ3LjkxMjcxMiwyNTkuMTE1NDgxIEwxNDguODMyMzc2LDI1OS4xMTU0ODEgTDE0OS40NDU0ODYsMjU5LjExNTQ4MSBMMTUwLjY3MTcwNSwyNTkuMTE1NDgxIEwxNTEuODk3OTI1LDI1OS4wMzg4NDIgTDE1MS44OTc5MjUsMjU5LjExNTQ4MSBDMTYzLjYyMzY0NywyNzUuODIyNzIgMTg0LjE2MjgyMiwyNzguMTk4NTIgMTg0LjE2MjgyMiwyNzguMTk4NTIgQzE5OC44MDA4MTYsMjYyLjc5NDEzOSAxOTkuNjQzODQxLDI0Ny40NjYzOTcgMTk5LjY0Mzg0MSwyNDQuMTcwOTMyIEMxOTkuNjQzODQxLDI0NC4xNzA5MzIgMTk5LjY0Mzg0MSwyNDQuMDk0Mjk0IDE5OS42NDM4NDEsMjQzLjk0MTAxNiBDMTk5LjY0Mzg0MSwyNDMuNjM0NDYxIDE5OS42NDM4NDEsMjQzLjQ4MTE4NCAxOTkuNjQzODQxLDI0My40ODExODQgQzE5OS42NDM4NDEsMjQzLjI1MTI2OCAxOTkuNjQzODQxLDI0My4wMjEzNTIgMTk5LjY0Mzg0MSwyNDIuNzkxNDM2IEMyMDIuNzA5MzksMjQwLjY0NTU1MiAyMDUuNjIxNjYxLDIzOC4zNDYzOSAyMDguMzgwNjU0LDIzNS44MTczMTMgQzIxNC4yMDUxOTYsMjMwLjUyOTI0MiAyMTkuMzM5OTksMjI0LjQ3NDc4NCAyMjMuNjMxNzU4LDIxNy45NjA0OTMgQzIyNC4wMTQ5NTEsMjE3LjM0NzM4NCAyMjQuMzk4MTQ1LDIxNi43MzQyNzQgMjI0Ljc4MTMzOSwyMTYuMTIxMTY0IEMyNDEuMzM1MywyMTcuMDQwODI5IDI1My4wNjEwMjMsMjA1Ljg1MTU3NyAyNTMuMDYxMDIzLDIwNS44NTE1NzcgQzI1MC4zMDIwMjksMTg4LjYwNzg2NyAyNDAuNDkyMjc0LDE4MC4xNzc2MDkgMjM4LjQyMzAyOSwxNzguNTY4MTk2IEMyMzguNDIzMDI5LDE3OC41NjgxOTYgMjM4LjM0NjM5LDE3OC40OTE1NTcgMjM4LjE5MzExMywxNzguNDE0OTE5IEMyMzguMDM5ODM1LDE3OC4zMzgyOCAyMzguMDM5ODM1LDE3OC4yNjE2NDEgMjM4LjAzOTgzNSwxNzguMjYxNjQxIEMyMzguMDM5ODM1LDE3OC4yNjE2NDEgMjM4LjAzOTgzNSwxNzguMjYxNjQxIDIzOC4wMzk4MzUsMTc4LjI2MTY0MSBDMjM3Ljk2MzE5NywxNzguMTg1MDAyIDIzNy44MDk5MTksMTc4LjEwODM2NCAyMzcuNjU2NjQyLDE3OC4wMzE3MjUgQzIzNy43MzMyODEsMTc2Ljk1ODc4MyAyMzcuODA5OTE5LDE3NS45NjI0OCAyMzcuODg2NTU4LDE3NC44ODk1MzggQzIzOC4wMzk4MzUsMTczLjA1MDIwOSAyMzguMDM5ODM1LDE3MS4xMzQyNDEgMjM4LjAzOTgzNSwxNjkuMjk0OTEyIEwyMzguMDM5ODM1LDE2Ny45MTU0MTUgTDIzOC4wMzk4MzUsMTY3LjIyNTY2NyBMMjM4LjAzOTgzNSwxNjYuODQyNDczIEMyMzguMDM5ODM1LDE2Ni4zODI2NDEgMjM4LjAzOTgzNSwxNjYuNTM1OTE4IDIzOC4wMzk4MzUsMTY2LjM4MjY0MSBMMjM3Ljk2MzE5NywxNjUuMjMzMDYgTDIzNy44ODY1NTgsMTYzLjcwMDI4NiBDMjM3Ljg4NjU1OCwxNjMuMTYzODE1IDIzNy44MDk5MTksMTYyLjcwMzk4MyAyMzcuNzMzMjgxLDE2Mi4yNDQxNTEgQzIzNy42NTY2NDIsMTYxLjc4NDMxOCAyMzcuNjU2NjQyLDE2MS4yNDc4NDcgMjM3LjU4MDAwMywxNjAuNzg4MDE1IEwyMzcuNDI2NzI2LDE1OS4zMzE4OCBMMjM3LjE5NjgxLDE1Ny44NzU3NDQgQzIzNi44OTAyNTUsMTU1Ljk1OTc3NiAyMzYuNTgzNywxNTQuMTIwNDQ3IDIzNi4xMjM4NjgsMTUyLjIwNDQ3OSBDMjM0LjM2MTE3NywxNDQuNzcwNTI1IDIzMS40NDg5MDYsMTM3LjcxOTc2MyAyMjcuNjkzNjEsMTMxLjM1ODc1IEMyMjMuODYxNjc0LDEyNC45OTc3MzcgMjE5LjExMDA3NCwxMTkuNDAzMTExIDIxMy42Njg3MjUsMTE0LjY1MTUxMSBDMjA4LjMwNDAxNiwxMDkuODk5OTExIDIwMi4yNDk1NTgsMTA2LjA2Nzk3NiAxOTUuOTY1MTgzLDEwMy4yMzIzNDMgQzE4OS42MDQxNywxMDAuMzk2NzExIDE4My4wMTMyNDEsOTguNTU3MzgyIDE3Ni40MjIzMTIsOTcuNzE0MzU2MiBDMTczLjEyNjg0Nyw5Ny4yNTQ1MjM5IDE2OS44MzEzODMsOTcuMTAxMjQ2NSAxNjYuNTM1OTE4LDk3LjE3Nzg4NTIgTDE2NS4zMDk2OTksOTcuMTc3ODg1MiBMMTY1LjAwMzE0NCw5Ny4xNzc4ODUyIEMxNjQuOTI2NTA1LDk3LjE3Nzg4NTIgMTY0LjU0MzMxMiw5Ny4xNzc4ODUyIDE2NC42MTk5NTEsOTcuMTc3ODg1MiBMMTY0LjA4MzQ4LDk3LjE3Nzg4NTIgTDE2Mi44NTcyNiw5Ny4yNTQ1MjM5IEMxNjIuMzk3NDI4LDk3LjI1NDUyMzkgMTYxLjkzNzU5Niw5Ny4zMzExNjI2IDE2MS41NTQ0MDIsOTcuMzMxMTYyNiBDMTU5Ljg2ODM1MSw5Ny40ODQ0NCAxNTguMTgyMjk5LDk3LjcxNDM1NjIgMTU2LjU3Mjg4Niw5OC4wMjA5MTEgQzE0OS45ODE5NTcsOTkuMjQ3MTMwNCAxNDMuNzc0MjIxLDEwMS42MjI5MyAxMzguMzMyODczLDEwNC45MTgzOTUgQzEzMi44OTE1MjQsMTA4LjIxMzg2IDEyOC4xMzk5MjQsMTEyLjI3NTcxMSAxMjQuMzA3OTg5LDExNi44NzQwMzQgQzEyMC40NzYwNTMsMTIxLjQ3MjM1NiAxMTcuNDg3MTQ0LDEyNi42MDcxNSAxMTUuNDE3ODk4LDEzMS44OTUyMjEgQzExMy4zNDg2NTMsMTM3LjE4MzI5MiAxMTIuMTk5MDcyLDE0Mi43MDEyNzkgMTExLjg5MjUxOCwxNDcuOTg5MzUgQzExMS44MTU4NzksMTQ5LjI5MjIwOCAxMTEuODE1ODc5LDE1MC42NzE3MDUgMTExLjgxNTg3OSwxNTEuOTc0NTYzIEMxMTEuODE1ODc5LDE1Mi4yODExMTggMTExLjgxNTg3OSwxNTIuNjY0MzEyIDExMS44MTU4NzksMTUyLjk3MDg2NyBMMTExLjg5MjUxOCwxNTQuMDQzODA5IEMxMTEuOTY5MTU2LDE1NC42NTY5MTggMTExLjk2OTE1NiwxNTUuMzQ2NjY3IDExMi4wNDU3OTUsMTU1Ljk1OTc3NiBDMTEyLjI3NTcxMSwxNTguNjQyMTMxIDExMi44MTIxODIsMTYxLjI0Nzg0NyAxMTMuNTAxOTMxLDE2My43MDAyODYgQzExNC45NTgwNjYsMTY4LjY4MTgwMiAxMTcuMjU3MjI3LDE3My4yMDM0ODYgMTIwLjA5Mjg2LDE3Ny4wMzU0MjIgQzEyMi45Mjg0OTIsMTgwLjg2NzM1NyAxMjYuMzc3MjM0LDE4NC4wMDk1NDQgMTI5Ljk3OTI1MywxODYuNTM4NjIyIEMxMzMuNTgxMjczLDE4OC45OTEwNjEgMTM3LjQ4OTg0NywxOTAuNzUzNzUxIDE0MS4zMjE3ODMsMTkxLjkwMzMzMiBDMTQ1LjE1MzcxOCwxOTMuMDUyOTEyIDE0OC45ODU2NTQsMTkzLjUxMjc0NSAxNTIuNTg3NjczLDE5My41MTI3NDUgQzE1My4wNDc1MDUsMTkzLjUxMjc0NSAxNTMuNTA3MzM4LDE5My41MTI3NDUgMTUzLjg5MDUzMSwxOTMuNTEyNzQ1IEMxNTQuMTIwNDQ3LDE5My41MTI3NDUgMTU0LjM1MDM2MywxOTMuNTEyNzQ1IDE1NC41ODAyNzksMTkzLjUxMjc0NSBDMTU0LjgxMDE5NiwxOTMuNTEyNzQ1IDE1NS4wNDAxMTIsMTkzLjUxMjc0NSAxNTUuMjcwMDI4LDE5My40MzYxMDYgQzE1NS42NTMyMjEsMTkzLjQzNjEwNiAxNTYuMDM2NDE1LDE5My4zNTk0NjcgMTU2LjQxOTYwOSwxOTMuMzU5NDY3IEMxNTYuNDk2MjQ3LDE5My4zNTk0NjcgMTU2LjY0OTUyNSwxOTMuMzU5NDY3IDE1Ni43MjYxNjMsMTkzLjI4MjgyOCBMMTU3LjEwOTM1NywxOTMuMjA2MTkgQzE1Ny4zMzkyNzMsMTkzLjIwNjE5IDE1Ny41NjkxODksMTkzLjEyOTU1MSAxNTcuNzk5MTA1LDE5My4xMjk1NTEgQzE1OC4yNTg5MzgsMTkzLjA1MjkxMiAxNTguNjQyMTMxLDE5Mi45NzYyNzQgMTU5LjEwMTk2MywxOTIuODk5NjM1IEMxNTkuNTYxNzk2LDE5Mi44MjI5OTYgMTU5Ljk0NDk4OSwxOTIuNzQ2MzU3IDE2MC4zMjgxODMsMTkyLjU5MzA4IEMxNjEuMTcxMjA5LDE5Mi40Mzk4MDMgMTYxLjkzNzU5NiwxOTIuMTMzMjQ4IDE2Mi43MDM5ODMsMTkxLjkwMzMzMiBDMTY0LjIzNjc1NywxOTEuMzY2ODYxIDE2NS43Njk1MzEsMTkwLjc1Mzc1MSAxNjcuMDcyMzg5LDE5MC4wNjQwMDMgQzE2OC40NTE4ODYsMTg5LjM3NDI1NCAxNjkuNjc4MTA2LDE4OC41MzEyMjggMTcwLjkwNDMyNSwxODcuNzY0ODQxIEMxNzEuMjEwODgsMTg3LjUzNDkyNSAxNzEuNTk0MDczLDE4Ny4zMDUwMDkgMTcxLjkwMDYyOCwxODYuOTk4NDU0IEMxNzMuMTI2ODQ3LDE4Ni4wMDIxNTEgMTczLjM1Njc2NCwxODQuMTYyODIyIDE3Mi4zNjA0NiwxODIuOTM2NjAyIEMxNzEuNTE3NDM1LDE4MS44NjM2NjEgMTY5Ljk4NDY2LDE4MS41NTcxMDYgMTY4Ljc1ODQ0MSwxODIuMjQ2ODU0IEMxNjguNDUxODg2LDE4Mi40MDAxMzEgMTY4LjE0NTMzMSwxODIuNTUzNDA5IDE2Ny44Mzg3NzYsMTgyLjcwNjY4NiBDMTY2Ljc2NTgzNSwxODMuMjQzMTU3IDE2NS42OTI4OTMsMTgzLjcwMjk5IDE2NC41NDMzMTIsMTg0LjA4NjE4MyBDMTYzLjM5MzczMSwxODQuNDY5Mzc3IDE2Mi4xNjc1MTIsMTg0Ljc3NTkzMiAxNjAuOTQxMjkyLDE4NS4wMDU4NDggQzE2MC4zMjgxODMsMTg1LjA4MjQ4NiAxNTkuNzE1MDczLDE4NS4xNTkxMjUgMTU5LjAyNTMyNSwxODUuMjM1NzY0IEMxNTguNzE4NzcsMTg1LjIzNTc2NCAxNTguNDEyMjE1LDE4NS4zMTI0MDIgMTU4LjAyOTAyMSwxODUuMzEyNDAyIEMxNTcuNzIyNDY3LDE4NS4zMTI0MDIgMTU3LjMzOTI3MywxODUuMzEyNDAyIDE1Ny4xMDkzNTcsMTg1LjMxMjQwMiBDMTU2LjgwMjgwMiwxODUuMzEyNDAyIDE1Ni40OTYyNDcsMTg1LjMxMjQwMiAxNTYuMTg5NjkyLDE4NS4zMTI0MDIgQzE1NS44MDY0OTksMTg1LjMxMjQwMiAxNTUuNDIzMzA1LDE4NS4zMTI0MDIgMTU1LjA0MDExMiwxODUuMjM1NzY0IEMxNTUuMDQwMTEyLDE4NS4yMzU3NjQgMTU0LjgxMDE5NiwxODUuMjM1NzY0IDE1NC45NjM0NzMsMTg1LjIzNTc2NCBMMTU0LjgxMDE5NiwxODUuMjM1NzY0IEwxNTQuNTgwMjc5LDE4NS4yMzU3NjQgQzE1NC40MjcwMDIsMTg1LjIzNTc2NCAxNTQuMTk3MDg2LDE4NS4yMzU3NjQgMTU0LjA0MzgwOSwxODUuMTU5MTI1IEMxNTMuNjYwNjE1LDE4NS4wODI0ODYgMTUzLjM1NDA2LDE4NS4wODI0ODYgMTUyLjk3MDg2NywxODUuMDA1ODQ4IEMxNTAuMTM1MjM0LDE4NC42MjI2NTQgMTQ3LjI5OTYwMiwxODMuNzc5NjI4IDE0NC42MTcyNDcsMTgyLjU1MzQwOSBDMTQxLjg1ODI1NCwxODEuMzI3MTkgMTM5LjI1MjUzNywxNzkuNjQxMTM4IDEzNi44NzY3MzcsMTc3LjQ5NTI1NCBDMTM0LjUwMDkzNywxNzUuMzQ5MzcgMTMyLjQzMTY5MiwxNzIuODIwMjkzIDEzMC44MjIyNzksMTY5LjkwODAyMiBDMTI5LjIxMjg2NiwxNjYuOTk1NzUxIDEyOC4wNjMyODYsMTYzLjc3NjkyNSAxMjcuNTI2ODE1LDE2MC40MDQ4MjIgQzEyNy4yOTY4OTgsMTU4LjcxODc3IDEyNy4xNDM2MjEsMTU2Ljk1NjA4IDEyNy4yMjAyNiwxNTUuMjcwMDI4IEMxMjcuMjIwMjYsMTU0LjgxMDE5NiAxMjcuMjk2ODk4LDE1NC4zNTAzNjMgMTI3LjI5Njg5OCwxNTMuODkwNTMxIEMxMjcuMjk2ODk4LDE1NC4wNDM4MDkgMTI3LjI5Njg5OCwxNTMuODEzODkyIDEyNy4yOTY4OTgsMTUzLjgxMzg5MiBMMTI3LjI5Njg5OCwxNTMuNjYwNjE1IEwxMjcuMjk2ODk4LDE1My4yNzc0MjEgQzEyNy4yOTY4OTgsMTUzLjA0NzUwNSAxMjcuMzczNTM3LDE1Mi44MTc1ODkgMTI3LjM3MzUzNywxNTIuNTg3NjczIEMxMjcuNDUwMTc2LDE1MS42NjgwMDggMTI3LjYwMzQ1MywxNTAuNzQ4MzQ0IDEyNy43NTY3MzEsMTQ5LjgyODY3OSBDMTI5LjA1OTU4OSwxNDIuNDcxMzYzIDEzMi43MzgyNDcsMTM1LjI2NzMyNCAxMzguNDA5NTEyLDEyOS44MjU5NzYgQzEzOS44NjU2NDcsMTI4LjQ0NjQ3OSAxNDEuMzk4NDIxLDEyNy4yMjAyNiAxNDMuMDA3ODM0LDEyNi4wNzA2NzkgQzE0NC42MTcyNDcsMTI0LjkyMTA5OCAxNDYuMzc5OTM3LDEyMy45MjQ3OTUgMTQ4LjIxOTI2NywxMjMuMDgxNzY5IEMxNTAuMDU4NTk2LDEyMi4yMzg3NDQgMTUxLjg5NzkyNSwxMjEuNTQ4OTk1IDE1My44OTA1MzEsMTIxLjAxMjUyNCBDMTU1LjgwNjQ5OSwxMjAuNDc2MDUzIDE1Ny43OTkxMDUsMTIwLjE2OTQ5OCAxNTkuODY4MzUxLDExOS45Mzk1ODIgQzE2MC44NjQ2NTQsMTE5Ljg2Mjk0NCAxNjEuODYwOTU3LDExOS43ODYzMDUgMTYyLjkzMzg5OSwxMTkuNzg2MzA1IEMxNjMuMjQwNDU0LDExOS43ODYzMDUgMTYzLjM5MzczMSwxMTkuNzg2MzA1IDE2My42MjM2NDcsMTE5Ljc4NjMwNSBMMTY0LjQ2NjY3MywxMTkuNzg2MzA1IEwxNjUuMDAzMTQ0LDExOS43ODYzMDUgQzE2NS4yMzMwNiwxMTkuNzg2MzA1IDE2NS4wMDMxNDQsMTE5Ljc4NjMwNSAxNjUuMDc5NzgzLDExOS43ODYzMDUgTDE2NS4zMDk2OTksMTE5Ljc4NjMwNSBMMTY2LjE1MjcyNSwxMTkuODYyOTQ0IEMxNjguMzc1MjQ3LDEyMC4wMTYyMjEgMTcwLjUyMTEzMSwxMjAuMzIyNzc2IDE3Mi42NjcwMTUsMTIwLjg1OTI0NyBDMTc2Ljk1ODc4MywxMjEuNzc4OTExIDE4MS4xNzM5MTIsMTIzLjM4ODMyNCAxODUuMDgyNDg2LDEyNS41MzQyMDggQzE5Mi44OTk2MzUsMTI5LjkwMjYxNSAxOTkuNTY3MjAzLDEzNi42NDY4MjEgMjAzLjYyOTA1NCwxNDQuNzcwNTI1IEMyMDUuNjk4MywxNDguODMyMzc2IDIwNy4xNTQ0MzUsMTUzLjIwMDc4MyAyMDcuODQ0MTgzLDE1Ny43MjI0NjcgQzIwNy45OTc0NjEsMTU4Ljg3MjA0NyAyMDguMTUwNzM4LDE2MC4wMjE2MjggMjA4LjIyNzM3NywxNjEuMTcxMjA5IEwyMDguMzA0MDE2LDE2Mi4wMTQyMzQgTDIwOC4zODA2NTQsMTYyLjg1NzI2IEMyMDguMzgwNjU0LDE2My4xNjM4MTUgMjA4LjM4MDY1NCwxNjMuNDcwMzcgMjA4LjM4MDY1NCwxNjMuNzAwMjg2IEMyMDguMzgwNjU0LDE2NC4wMDY4NDEgMjA4LjM4MDY1NCwxNjQuMzEzMzk2IDIwOC4zODA2NTQsMTY0LjU0MzMxMiBMMjA4LjM4MDY1NCwxNjUuMzA5Njk5IEwyMDguMzgwNjU0LDE2Ni4xNTI3MjUgQzIwOC4zODA2NTQsMTY2LjY4OTE5NiAyMDguMzA0MDE2LDE2Ny42MDg4NiAyMDguMzA0MDE2LDE2OC4xNDUzMzEgQzIwOC4yMjczNzcsMTY5LjM3MTU1MSAyMDguMDc0MSwxNzAuNjc0NDA5IDIwNy45MjA4MjIsMTcxLjkwMDYyOCBDMjA3Ljc2NzU0NSwxNzMuMTI2ODQ3IDIwNy41Mzc2MjksMTc0LjM1MzA2NyAyMDcuMzA3NzEyLDE3NS41NzkyODYgQzIwNy4wNzc3OTYsMTc2LjgwNTUwNiAyMDYuNzcxMjQxLDE3OC4wMzE3MjUgMjA2LjQ2NDY4NywxNzkuMTgxMzA2IEMyMDUuODUxNTc3LDE4MS41NTcxMDYgMjA1LjA4NTE5LDE4My45MzI5MDYgMjA0LjE2NTUyNSwxODYuMzA4NzA2IEMyMDIuMzI2MTk2LDE5MC45MDcwMjggMTk5Ljg3Mzc1OCwxOTUuMzUyMDc0IDE5Ni45NjE0ODcsMTk5LjQxMzkyNSBDMTkxLjA2MDMwNiwyMDcuNTM3NjI5IDE4My4wMTMyNDEsMjE0LjEyODU1OCAxNzMuODE2NTk2LDIxOC4zNDM2ODcgQzE2OS4yMTgyNzMsMjIwLjQxMjkzMiAxNjQuMzkwMDM0LDIyMS45NDU3MDYgMTU5LjQwODUxOCwyMjIuNzEyMDkzIEMxNTYuOTU2MDgsMjIzLjE3MTkyNiAxNTQuNDI3MDAyLDIyMy40MDE4NDIgMTUxLjg5NzkyNSwyMjMuNDc4NDggTDE1MS40MzgwOTIsMjIzLjQ3ODQ4IEwxNTEuMDU0ODk5LDIyMy40Nzg0OCBMMTUwLjIxMTg3MywyMjMuNDc4NDggTDE0OC45ODU2NTQsMjIzLjQ3ODQ4IEwxNDguMzcyNTQ0LDIyMy40Nzg0OCBDMTQ4LjY3OTA5OSwyMjMuNDc4NDggMTQ4LjI5NTkwNSwyMjMuNDc4NDggMTQ4LjI5NTkwNSwyMjMuNDc4NDggTDE0OC4wNjU5ODksMjIzLjQ3ODQ4IEMxNDYuNjg2NDkyLDIyMy40Nzg0OCAxNDUuMzgzNjM0LDIyMy40MDE4NDIgMTQ0LjAwNDEzNywyMjMuMjQ4NTY0IEMxMzguNjM5NDI4LDIyMi44NjUzNzEgMTMzLjM1MTM1NywyMjEuODY5MDY4IDEyOC4xMzk5MjQsMjIwLjQxMjkzMiBDMTIzLjAwNTEzMSwyMTguOTU2Nzk2IDExOC4wMjM2MTQsMjE2Ljg4NzU1MSAxMTMuMjcyMDE0LDIxNC40MzUxMTMgQzEwMy44NDU0NTMsMjA5LjM3Njk1OCA5NS4zMzg1NTYxLDIwMi40Nzk0NzQgODguNzQ3NjI3LDE5NC4xMjU4NTQgQzg1LjQ1MjE2MjQsMTg5Ljk4NzM2NCA4Mi41Mzk4OTE0LDE4NS40NjU2OCA4MC4xNjQwOTE0LDE4MC43OTA3MTkgQzc3Ljc4ODI5MTQsMTc2LjExNTc1NyA3NS44NzIzMjM2LDE3MS4xMzQyNDEgNzQuNDkyODI2OCwxNjYuMTUyNzI1IEM3My4xMTMzMywxNjEuMDk0NTcgNzIuMjcwMzA0MiwxNTUuOTU5Nzc2IDcxLjg4NzExMDYsMTUwLjc0ODM0NCBMNzEuODEwNDcxOSwxNDkuNzUyMDQxIEw3MS44MTA0NzE5LDE0OS41MjIxMjUgTDcxLjgxMDQ3MTksMTQ5LjI5MjIwOCBMNzEuODEwNDcxOSwxNDguODMyMzc2IEw3MS44MTA0NzE5LDE0Ny45ODkzNSBMNzEuODEwNDcxOSwxNDcuNzU5NDM0IEw3MS44MTA0NzE5LDE0Ny40NTI4NzkgTDcxLjgxMDQ3MTksMTQ2LjgzOTc3IEw3MS44MTA0NzE5LDE0NS42MTM1NSBMNzEuODEwNDcxOSwxNDUuMzgzNjM0IEM3MS44MTA0NzE5LDE0NS4zODM2MzQgNzEuODEwNDcxOSwxNDUuNDYwMjczIDcxLjgxMDQ3MTksMTQ1LjMwNjk5NiBMNzEuODEwNDcxOSwxNDQuODQ3MTYzIEM3MS44MTA0NzE5LDE0NC4yMzQwNTQgNzEuODEwNDcxOSwxNDMuNTQ0MzA1IDcxLjgxMDQ3MTksMTQyLjkzMTE5NSBDNzEuODg3MTEwNiwxNDAuNDAyMTE4IDcyLjExNzAyNjgsMTM3LjcxOTc2MyA3Mi40MjM1ODE2LDEzNS4xMTQwNDcgQzcyLjczMDEzNjUsMTMyLjUwODMzMSA3My4xODk5Njg3LDEyOS44MjU5NzYgNzMuNzI2NDM5NywxMjcuMjIwMjYgQzc0LjI2MjkxMDcsMTI0LjYxNDU0NCA3NC44NzYwMjA0LDEyMi4wMDg4MjcgNzUuNjQyNDA3NSwxMTkuNDAzMTExIEM3Ny4wOTg1NDMsMTE0LjI2ODMxOCA3OC45Mzc4NzIsMTA5LjI4NjgwMSA4MS4wODM3NTU5LDEwNC42MTE4NCBDODUuNDUyMTYyNCw5NS4yNjE5MTc0IDkxLjEyMzQyNyw4Ni45MDgyOTc5IDk3Ljk0NDI3MjMsODAuMjQwNzMwMSBDOTkuNjMwMzIzOSw3OC41NTQ2Nzg1IDEwMS4zOTMwMTQsNzcuMDIxOTA0MyAxMDMuMjMyMzQzLDc1LjQ4OTEzIEMxMDUuMDcxNjcyLDc0LjAzMjk5NDUgMTA2Ljk4NzY0LDcyLjY1MzQ5NzggMTA4Ljk4MDI0Nyw3MS4zNTA2Mzk3IEMxMTAuODk2MjE0LDcwLjA0Nzc4MTYgMTEyLjk2NTQ2LDY4Ljg5ODIwMDkgMTE1LjAzNDcwNSw2Ny44MjUyNTkgQzExNi4wMzEwMDgsNjcuMjg4Nzg4IDExNy4xMDM5NSw2Ni43NTIzMTcgMTE4LjE3Njg5Miw2Ni4yOTI0ODQ4IEMxMTguNzEzMzYzLDY2LjA2MjU2ODYgMTE5LjI0OTgzNCw2NS44MzI2NTI1IDExOS43ODYzMDUsNjUuNjAyNzM2NCBDMTIwLjMyMjc3Niw2NS4zNzI4MjAyIDEyMC44NTkyNDcsNjUuMTQyOTA0MSAxMjEuMzk1NzE4LDY0LjkxMjk4OCBDMTIzLjU0MTYwMiw2My45OTMzMjM0IDEyNS43NjQxMjQsNjMuMjI2OTM2MyAxMjguMDYzMjg2LDYyLjUzNzE4NzkgQzEyOC41OTk3NTcsNjIuMzgzOTEwNSAxMjkuMjEyODY2LDYyLjIzMDYzMzEgMTI5Ljc0OTMzNyw2Mi4wMDA3MTcgQzEzMC4yODU4MDgsNjEuODQ3NDM5NSAxMzAuODk4OTE4LDYxLjY5NDE2MjEgMTMxLjQzNTM4OSw2MS41NDA4ODQ3IEMxMzIuNTg0OTcsNjEuMjM0MzI5OSAxMzMuNzM0NTUsNjAuOTI3Nzc1IDEzNC44ODQxMzEsNjAuNjk3ODU4OSBDMTM1LjQyMDYwMiw2MC41NDQ1ODE1IDEzNi4wMzM3MTIsNjAuNDY3OTQyNyAxMzYuNjQ2ODIxLDYwLjMxNDY2NTMgQzEzNy4yNTk5MzEsNjAuMTYxMzg3OSAxMzcuNzk2NDAyLDYwLjA4NDc0OTIgMTM4LjQwOTUxMiw1OS45MzE0NzE4IEMxMzkuMDIyNjIxLDU5Ljg1NDgzMzEgMTM5LjU1OTA5Miw1OS43MDE1NTU2IDE0MC4xNzIyMDIsNTkuNjI0OTE2OSBMMTQxLjAxNTIyOCw1OS40NzE2Mzk1IEwxNDEuOTM0ODkyLDU5LjMxODM2MjEgQzE0Mi41NDgwMDIsNTkuMjQxNzIzNCAxNDMuMDg0NDczLDU5LjE2NTA4NDcgMTQzLjY5NzU4Myw1OS4wODg0NDYgQzE0NC4zODczMzEsNTkuMDExODA3MiAxNDUuMDAwNDQxLDU4LjkzNTE2ODUgMTQ1LjY5MDE4OSw1OC44NTg1Mjk4IEMxNDYuMjI2NjYsNTguNzgxODkxMSAxNDcuMTQ2MzI1LDU4LjcwNTI1MjQgMTQ3LjY4Mjc5Niw1OC42Mjg2MTM3IEMxNDguMDY1OTg5LDU4LjU1MTk3NSAxNDguNTI1ODIxLDU4LjU1MTk3NSAxNDguOTA5MDE1LDU4LjQ3NTMzNjMgTDE0OS43NTIwNDEsNTguMzk4Njk3NiBMMTUwLjEzNTIzNCw1OC4zMjIwNTg4IEwxNTAuNTk1MDY3LDU4LjMyMjA1ODggQzE1MS4yODQ4MTUsNTguMjQ1NDIwMSAxNTEuODk3OTI1LDU4LjI0NTQyMDEgMTUyLjU4NzY3Myw1OC4xNjg3ODE0IEwxNTMuNTgzOTc2LDU4LjA5MjE0MjcgQzE1My41ODM5NzYsNTguMDkyMTQyNyAxNTMuOTY3MTcsNTguMDkyMTQyNyAxNTMuNjYwNjE1LDU4LjA5MjE0MjcgTDE1My44OTA1MzEsNTguMDkyMTQyNyBMMTU0LjM1MDM2Myw1OC4wOTIxNDI3IEMxNTQuODg2ODM0LDU4LjA5MjE0MjcgMTU1LjQ5OTk0NCw1OC4wMTU1MDQgMTU2LjAzNjQxNSw1OC4wMTU1MDQgQzE1OC4yNTg5MzgsNTcuOTM4ODY1MyAxNjAuNTU4MDk5LDU3LjkzODg2NTMgMTYyLjc4MDYyMiw1OC4wMTU1MDQgQzE2Ny4yMjU2NjcsNTguMTY4NzgxNCAxNzEuNTk0MDczLDU4LjcwNTI1MjQgMTc1LjgwOTIwMiw1OS40NzE2Mzk1IEMxODQuMzE2MDk5LDYxLjA4MTA1MjQgMTkyLjI4NjUyNSw2My43NjM0MDczIDE5OS41NjcyMDMsNjcuMzY1NDI2NyBDMjA2Ljg0Nzg4LDcwLjg5MDgwNzQgMjEzLjI4NTUzMiw3NS4yNTkyMTM5IDIxOC45NTY3OTYsODAuMDEwODE0IEMyMTkuMzM5OTksODAuMzE3MzY4OCAyMTkuNjQ2NTQ1LDgwLjYyMzkyMzcgMjIwLjAyOTczOCw4MC45MzA0Nzg1IEMyMjAuMzM2MjkzLDgxLjIzNzAzMzQgMjIwLjcxOTQ4Nyw4MS41NDM1ODgyIDIyMS4wMjYwNDIsODEuODUwMTQzIEMyMjEuNzE1NzksODIuNDYzMjUyNyAyMjIuMzI4OSw4My4wNzYzNjI0IDIyMy4wMTg2NDgsODMuNjg5NDcyMSBDMjIzLjcwODM5Nyw4NC4zMDI1ODE4IDIyNC4zMjE1MDYsODQuOTE1NjkxNSAyMjQuOTM0NjE2LDg1LjUyODgwMTIgQzIyNS41NDc3MjYsODYuMTQxOTEwOCAyMjYuMTYwODM1LDg2Ljc1NTAyMDUgMjI2Ljc3Mzk0NSw4Ny40NDQ3Njg5IEMyMjkuMTQ5NzQ1LDg5Ljk3Mzg0NjQgMjMxLjM3MjI2OCw5Mi41MDI5MjM4IDIzMy4zNjQ4NzQsOTUuMTA4NjQgQzIzNy4zNTAwODcsMTAwLjI0MzQzNCAyNDAuNTY4OTEzLDEwNS40NTQ4NjYgMjQzLjA5Nzk5LDExMC4zNTk3NDMgQzI0My4yNTEyNjgsMTEwLjY2NjI5OCAyNDMuNDA0NTQ1LDExMC45NzI4NTMgMjQzLjU1NzgyMywxMTEuMjc5NDA4IEMyNDMuNzExMSwxMTEuNTg1OTYzIDI0My44NjQzNzcsMTExLjg5MjUxOCAyNDQuMDE3NjU1LDExMi4xOTkwNzIgQzI0NC4zMjQyMSwxMTIuODEyMTgyIDI0NC42MzA3NjUsMTEzLjQyNTI5MiAyNDQuODYwNjgxLDExNC4wMzg0MDIgQzI0NS4xNjcyMzYsMTE0LjY1MTUxMSAyNDUuMzk3MTUyLDExNS4xODc5ODIgMjQ1LjcwMzcwNywxMTUuODAxMDkyIEMyNDUuOTMzNjIzLDExNi40MTQyMDIgMjQ2LjI0MDE3OCwxMTYuOTUwNjczIDI0Ni40NzAwOTQsMTE3LjU2Mzc4MiBDMjQ3LjM4OTc1OCwxMTkuODYyOTQ0IDI0OC4zMDk0MjMsMTIyLjA4NTQ2NiAyNDguOTk5MTcxLDEyNC4xNTQ3MTEgQzI1MC4xNDg3NTIsMTI3LjUyNjgxNSAyNTAuOTkxNzc4LDEzMC41MTU3MjQgMjUxLjY4MTUyNiwxMzMuMTIxNDQxIEMyNTEuOTExNDQyLDEzNC4xOTQzODIgMjUyLjkwNzc0NSwxMzQuODg0MTMxIDI1My45ODA2ODcsMTM0LjczMDg1MyBDMjU1LjEzMDI2OCwxMzQuNjU0MjE1IDI1NS45NzMyOTQsMTMzLjczNDU1IDI1NS45NzMyOTQsMTMyLjU4NDk3IEMyNTYuMDQ5OTMyLDEyOS44MjU5NzYgMjU1Ljk3MzI5NCwxMjYuNTMwNTExIDI1NS41OTAxLDEyMi43NzUyMTUgWiIgZmlsbD0idXJsKCNsaW5lYXJHcmFkaWVudC0xKSIgZmlsbC1ydWxlPSJub256ZXJvIi8+JiN4YTsgICAgPC9nPiYjeGE7PC9zdmc+;" vertex="1" parent="1">
          <mxGeometry x="730" y="100" width="60" height="65.07" as="geometry"/>
        </mxCell>
      </root>
    </mxGraphModel>
  </diagram>
</mxfile>
